<?xml version="1.0" encoding="utf-8"?>
<!-- Generator: Adobe Illustrator 23.0.0, SVG Export Plug-In . SVG Version: 6.00 Build 0)  -->
<svg version="1.1" id="Layer_1" xmlns="http://www.w3.org/2000/svg" xmlns:xlink="http://www.w3.org/1999/xlink" x="0px" y="0px"
	 viewBox="0 0 141.7 141.7" style="enable-background:new 0 0 141.7 141.7;" xml:space="preserve">
<style type="text/css">
	.st0{fill:#0B9891;}
	.st1{fill:#136C68;}
</style>
<g>
	<path class="st0" d="M49.5,73.5c-0.2-0.3-0.4-0.6-0.7-0.9c-4.4-5.3-11.2-8.3-19.7-6.5c-1.8,0.4-3.5,0.2-5.2-0.2c0,0-0.1,0-0.1,0
		c-3.6-0.8-6.8-3-8.9-6.2c-0.6-1.2-1.2-2.8-1.7-4.6c-0.2-0.7-0.4-1.5-0.5-2.2c0,0,0-0.1,0-0.1c-0.7-3.4-1.2-7.2-0.8-10.4
		C13.5,29.2,24,7.3,37.2,8.6c19.5,2,32.7-5.1,53,6.4c2.3,1.3,4.2,2.8,5.8,4.4c0.3,0.3,0.5,0.5,0.8,0.8c0.1,0.1,0.2,0.2,0.3,0.4
		c0.2,0.2,0.4,0.5,0.7,0.8c0.3,0.4,0.6,0.7,0.9,1.1c0.8,1,1.5,2.1,2.2,3.2c0.1,0.2,0.3,0.4,0.3,0.6c0.3,0.5,0.5,0.9,0.8,1.4
		c0.1,0.2,0.2,0.3,0.3,0.5c1.2,2.7,1.5,5.8,1.2,8.9c-0.5,4.3-2.4,8.6-5.3,11.5C85.5,61.4,75.6,68.8,49.5,73.5z"/>
	<path class="st0" d="M129.9,51.2c-0.7,6.4-7.6,13.8-15.1,19.2c-1.3,0.9-2.5,1.9-3.7,3c-6,5.6-10.1,12.9-13.2,21
		c-0.2,0.1-0.3,0.2-0.4,0.4c-0.7,0.7-1.4,1.8-1.4,3.5v0.5c-0.1,0.1-0.3,0.1-0.4,0.2c-0.1-0.1-0.3-0.3-0.4-0.4
		c-0.9-1-2.2-1.5-3.4-1.5h0c-1.3,0-2.5,0.5-3.4,1.5c-0.8,0.9-1.7,1.7-2.5,2.5c-1,0.9-1.5,2.2-1.5,3.4c0,0.9,0.3,2.2,1.5,3.4
		c0.1,0.1,0.2,0.2,0.3,0.3c0,0.1-0.1,0.3-0.2,0.4c-0.2,0-0.4,0-0.6,0c-1.4,0-2.5,0.5-3.4,1.4c-0.7,0.6-1.4,1.8-1.4,3.5
		c0,1.1,0,2.3,0,3.4c0,1.4,0.5,2.6,1.4,3.5c0.6,0.6,1.7,1.4,3.5,1.4h0.4c0.1,0.1,0.1,0.3,0.2,0.4c-0.1,0.1-0.2,0.2-0.4,0.3
		c-0.9,0.9-1.5,2.1-1.5,3.4c0,0.3,0,0.7,0.1,1c-1.8,2.4-3.9,4.7-6.4,6.8c-0.3,0.2-0.5,0.5-0.8,0.7c-2.4,1.9-7.7,3.9-12.5,1.4
		c-3.2-0.6-5.4-3.4-7-7.4c-0.9-1.9-1.6-3.9-1.8-6.1v0c-1-4.8-1.5-10.2-1.7-15.3c28.9-13.6,48.2-32.4,57-46.1c2.3-3.6,4.1-8,5.1-12.5
		c0.2-0.8,0.3-1.6,0.4-2.4c0.6,0.3,1.3,0.6,2,0.8c0.1,0,0.2,0.1,0.4,0.1C123.3,47.7,131,40.2,129.9,51.2z"/>
	<path class="st1" d="M113.6,44c-0.1,0.9-0.3,1.9-0.5,2.8c-0.8,3.2-2.5,6.7-5.3,10.4c-16,21.3-40,32.5-53.4,37c0-0.2,0-0.4,0-0.6
		c0-0.4,0-0.7,0-1c0-0.7,0-1.3,0.1-1.8c0,0,0,0,0,0c0-0.5,0-1,0.1-1.4c0-0.9,0.1-1.4,0-1.4c0-0.5-0.1-1-0.1-1.5
		c-0.1-0.9-0.2-1.7-0.4-2.6c0-0.2,0-0.3-0.1-0.4c0-0.3-0.1-0.6-0.2-0.9c3-1,5.9-2,8.8-3.1c23.3-9.1,40.3-21.6,44.4-37.3
		c0.4-1.3,0.6-2.6,0.8-4c0,0,0,0,0,0v0c0.9-8.1-4.2-13-9.4-16.1c0,0,0,0,0,0c-0.2-0.2-0.3-0.3-0.4-0.5c-0.2-0.3-0.5-0.5-0.7-0.8
		c4.3,1.8,9.3,4.6,12,8.1C111.6,31.8,114.5,37.1,113.6,44z"/>
	<path class="st1" d="M120.5,112.6c-0.3-0.3-0.7-0.3-0.8-0.3h-3.2c-0.3-1.7-1-3.3-2-4.8c0.4-0.4,0.7-0.7,1.1-1.1
		c0.4-0.4,0.8-0.7,1.1-1.1c0.1-0.1,0.4-0.4,0.4-0.8c0-0.4-0.3-0.7-0.4-0.8c-0.9-0.8-1.7-1.7-2.6-2.6c-0.1-0.1-0.3-0.4-0.8-0.4
		c-0.4,0-0.7,0.3-0.8,0.4c-0.3,0.4-0.7,0.7-1.1,1.1c-0.4,0.4-0.8,0.8-1.2,1.2c-1.4-1-3-1.6-4.8-2c0-0.5,0-1,0-1.5c0-0.6,0-1.1,0-1.7
		c0-0.1,0-0.5-0.3-0.9c-0.3-0.3-0.7-0.3-0.9-0.3c-1.2,0-2.4,0-3.5,0c-0.1,0-0.5,0-0.9,0.3c-0.3,0.3-0.3,0.7-0.3,0.9v3.3
		c-1.7,0.3-3.3,1-4.7,2c-0.1-0.1-0.1-0.1-0.2-0.2l-0.9-0.9c-0.4-0.4-0.9-0.9-1.3-1.3c-0.1-0.1-0.4-0.4-0.8-0.4
		c-0.4,0-0.7,0.3-0.8,0.4c-0.8,0.9-1.7,1.7-2.6,2.6c-0.1,0.1-0.4,0.4-0.4,0.8c0,0.4,0.3,0.7,0.4,0.8c0.4,0.4,0.8,0.8,1.2,1.1
		c0.4,0.4,0.8,0.8,1.2,1.2c-1,1.4-1.6,3-2,4.7h-3.2c-0.1,0-0.5,0-0.9,0.3c-0.3,0.3-0.3,0.7-0.3,0.9v3.5c0,0.2,0,0.6,0.3,0.9
		c0.3,0.3,0.7,0.3,0.9,0.3c0.7,0,1.3,0,2,0h1.2c0.1,0.4,0.2,0.9,0.3,1.3c0.4,1.2,0.9,2.4,1.6,3.5c-0.4,0.3-0.7,0.7-1.1,1.1
		c-0.4,0.4-0.8,0.8-1.2,1.2c-0.1,0.1-0.4,0.4-0.4,0.8c0,0.4,0.3,0.7,0.4,0.8c0.9,0.8,1.7,1.7,2.6,2.6c0.1,0.1,0.4,0.4,0.8,0.4
		c0.4,0,0.7-0.3,0.8-0.4c0.5-0.5,0.9-0.9,1.4-1.4c0.3-0.3,0.6-0.6,0.9-0.9c1.5,1,3.1,1.7,4.8,2c0,0.5,0,1,0,1.6v1.6
		c0,0.2,0,0.5,0.3,0.9c0.2,0.2,0.5,0.3,0.8,0.3h3.5c0,0,0.1,0,0.1,0c0.2,0,0.5,0,0.8-0.3c0.3-0.3,0.3-0.8,0.3-0.9c0-0.6,0-1.1,0-1.7
		c0-0.4,0-0.9,0-1.3c1.7-0.3,3.3-1,4.8-2c0.3,0.3,0.7,0.7,1,1c0.4,0.4,0.8,0.8,1.2,1.2c0.1,0.1,0.4,0.4,0.8,0.4
		c0.4,0,0.7-0.3,0.8-0.4c0.8-0.9,1.7-1.7,2.6-2.6c0.1-0.1,0.4-0.3,0.4-0.8c0-0.4-0.3-0.7-0.4-0.8c-0.5-0.5-0.9-0.9-1.4-1.4l-0.8-0.8
		c1-1.5,1.6-3.1,2-4.8h1.6c0.5,0,1,0,1.6,0c0.2,0,0.5,0,0.8-0.3c0.3-0.3,0.3-0.7,0.3-0.8c0-1.2,0-2.4,0-3.7
		C120.8,113.3,120.8,112.9,120.5,112.6z M102.6,124.4c-5.2-0.1-9.2-4.2-9.1-9.3c0.1-5,4.2-9,9.1-9h0.1c2.5,0,4.8,1,6.5,2.8
		c1.7,1.8,2.6,4.1,2.5,6.6C111.6,120.5,107.6,124.4,102.6,124.4z"/>
</g>
</svg>
