<?xml version="1.0" encoding="utf-8"?>
<!-- Generator: Adobe Illustrator 23.0.0, SVG Export Plug-In . SVG Version: 6.00 Build 0)  -->
<svg version="1.1" id="Layer_1" xmlns="http://www.w3.org/2000/svg" xmlns:xlink="http://www.w3.org/1999/xlink" x="0px" y="0px"
	 viewBox="0 0 256 96.2" style="enable-background:new 0 0 256 96.2;" xml:space="preserve">
<style type="text/css">
	.st0{fill:#136C68;}
	.st1{fill:#0B9891;}
</style>
<g>
	<path class="st0" d="M87.5,44.7h9.6c1.2,0,2.4,0.1,3.3,0.4c1,0.2,1.8,0.5,2.5,0.9c0.6,0.3,1.2,0.8,1.7,1.3c0.5,0.6,0.8,1.1,1.1,1.6
		c0.3,0.5,0.5,1.1,0.6,1.8c0.1,0.7,0.2,1.3,0.3,1.9c0,0.5,0,1.1,0,1.8v4.2c0,0.7,0,1.3,0,1.8c0,0.5-0.1,1.1-0.3,1.9
		c-0.1,0.7-0.3,1.3-0.6,1.8c-0.3,0.5-0.6,1.1-1.1,1.6c-0.5,0.6-1,1-1.7,1.4c-0.6,0.3-1.5,0.6-2.5,0.9c-1,0.2-2.1,0.4-3.3,0.4l-9.6,0
		V44.7z M98.8,51.9c0-0.5-0.3-0.8-0.9-1c-0.6-0.2-1.2-0.2-1.7-0.2l-0.9,0.1v11.2c0.1,0,0.2,0,0.4,0.1c0.2,0,0.4,0,0.8,0.1
		c0.4,0,0.7,0,1,0c0.3,0,0.6-0.1,0.8-0.3c0.3-0.2,0.4-0.5,0.4-0.8V51.9z"/>
	<path class="st0" d="M109.3,44.7l7.7,0.1c0.8,0,1.4,0,2,0.1c0.6,0,1.2,0.1,1.9,0.3c0.7,0.1,1.3,0.3,1.8,0.6c0.5,0.2,1,0.6,1.5,1
		c0.5,0.4,0.9,0.9,1.3,1.5c0.3,0.6,0.6,1.3,0.8,2.1c0.2,0.8,0.3,1.8,0.3,2.8c0,1.4-0.2,2.6-0.6,3.7c-0.4,1-0.9,1.8-1.5,2.4
		c-0.6,0.6-1.4,1-2.3,1.4c-0.9,0.3-1.8,0.6-2.5,0.7c-0.8,0.1-1.7,0.2-2.7,0.2v7.1h-7.7V44.7z M120.3,53.2c0-0.3,0-0.6-0.1-0.9
		c0-0.2-0.1-0.4-0.1-0.6c0-0.2-0.2-0.3-0.3-0.4c-0.2-0.1-0.3-0.2-0.4-0.2c-0.1-0.1-0.3-0.1-0.7-0.1c-0.3,0-0.6,0-0.8,0
		c-0.2,0-0.5,0-1,0v4.5c1.4,0,2.3-0.1,2.8-0.3C120.1,54.9,120.3,54.2,120.3,53.2z"/>
	<path class="st0" d="M129.4,44.7l7.7,0.1c0.9,0,1.7,0,2.4,0.1c0.7,0,1.3,0.1,2.1,0.3c0.7,0.1,1.3,0.3,1.8,0.6c0.5,0.2,1,0.6,1.4,1
		c0.5,0.4,0.8,0.9,1.1,1.5c0.3,0.6,0.5,1.3,0.7,2.1c0.2,0.8,0.2,1.8,0.2,2.8c0,3.4-1.1,5.7-3.3,7l7.2,11.7l-8.2,0l-5.3-8.3v5.1h-7.7
		V44.7z M140.5,53.2c0-1.1-0.2-1.7-0.7-2c-0.5-0.3-1.4-0.4-2.7-0.3v4.5c0.4,0,0.8,0,1.2,0c0.4,0,0.7,0,1-0.1
		c0.3-0.1,0.5-0.2,0.7-0.3s0.3-0.4,0.4-0.7C140.4,54,140.5,53.7,140.5,53.2z"/>
	<path class="st0" d="M159.2,44.7c1.2,0,2.4,0.1,3.3,0.4c1,0.2,1.8,0.5,2.5,0.9c0.6,0.3,1.2,0.8,1.7,1.3s0.8,1.1,1.1,1.6
		c0.3,0.5,0.5,1.1,0.6,1.8c0.1,0.7,0.2,1.3,0.3,1.9c0,0.5,0,1.1,0,1.8v4.2c0,0.7,0,1.3,0,1.8s-0.1,1.1-0.3,1.9
		c-0.1,0.7-0.3,1.3-0.6,1.8c-0.3,0.5-0.6,1.1-1.1,1.6c-0.5,0.6-1,1-1.7,1.4c-0.6,0.3-1.5,0.6-2.5,0.9c-1,0.2-2.1,0.4-3.3,0.4
		c-1.3,0-2.4-0.1-3.4-0.3c-1-0.2-1.8-0.5-2.5-0.8c-0.7-0.3-1.2-0.8-1.7-1.3c-0.5-0.6-0.8-1.1-1.1-1.6c-0.2-0.5-0.4-1.1-0.6-1.9
		c-0.1-0.7-0.2-1.4-0.2-1.9c0-0.5,0-1.2,0-1.9v-4.2c0-0.8,0-1.4,0-2c0-0.5,0.1-1.1,0.2-1.9c0.1-0.7,0.3-1.4,0.6-1.9
		c0.2-0.5,0.6-1,1.1-1.6c0.5-0.6,1-1,1.7-1.3c0.7-0.3,1.5-0.6,2.5-0.8C156.8,44.8,157.9,44.7,159.2,44.7z M160.3,51.3
		c-0.4-0.3-0.8-0.4-1.2-0.4c-0.4,0-0.8,0.1-1.2,0.4c-0.4,0.3-0.5,0.6-0.5,0.9v8.7c0,0.3,0.2,0.6,0.5,0.9c0.4,0.3,0.8,0.4,1.2,0.4
		c0.4,0,0.8-0.1,1.2-0.4c0.4-0.3,0.6-0.6,0.6-0.9v-8.7C160.9,51.8,160.7,51.5,160.3,51.3z"/>
	<path class="st0" d="M180,44.8h9.3l0,6.3h-10c-0.3,0-0.6,0.1-0.8,0.4c-0.2,0.2-0.3,0.5-0.3,0.8c0,0.3,0.1,0.6,0.3,0.8
		c0.2,0.2,0.5,0.3,0.8,0.3c0.6,0,1.1,0,1.5,0c0.4,0,0.9,0,1.5,0.1c0.6,0,1.1,0.1,1.5,0.2c0.4,0.1,0.9,0.2,1.4,0.4
		c0.5,0.2,1,0.4,1.3,0.6c0.3,0.2,0.7,0.6,1.1,0.9c0.4,0.4,0.7,0.8,0.9,1.3c0.2,0.5,0.4,1.1,0.5,1.7s0.2,1.4,0.2,2.2
		c0,1-0.1,1.9-0.3,2.7c-0.2,0.8-0.4,1.4-0.7,2c-0.3,0.5-0.7,1-1.1,1.3c-0.5,0.4-0.9,0.6-1.4,0.8c-0.4,0.2-1,0.3-1.7,0.4
		c-0.7,0.1-1.2,0.2-1.7,0.2c-0.4,0-1,0-1.8,0h-9.2v-6.1h9.9c0.3,0,0.6-0.2,0.8-0.5c0.2-0.3,0.3-0.6,0.3-1c0-0.3-0.1-0.6-0.3-0.8
		c-0.2-0.2-0.5-0.3-0.8-0.3c-0.6,0-1,0-1.4,0c-0.3,0-0.8,0-1.4-0.1c-0.6,0-1.1-0.1-1.5-0.2c-0.4-0.1-0.9-0.2-1.4-0.4
		c-0.6-0.2-1-0.4-1.4-0.6c-0.4-0.2-0.7-0.6-1.1-0.9c-0.4-0.4-0.7-0.8-0.9-1.3c-0.2-0.5-0.4-1.1-0.6-1.7c-0.1-0.7-0.2-1.4-0.2-2.2
		c0-1,0.1-1.9,0.3-2.7c0.2-0.8,0.5-1.5,0.8-2c0.3-0.5,0.7-1,1.2-1.3c0.5-0.4,1-0.6,1.4-0.8c0.4-0.2,1-0.3,1.7-0.4
		c0.7-0.1,1.2-0.2,1.6-0.2C178.8,44.8,179.4,44.8,180,44.8z"/>
	<path class="st0" d="M201.9,44.7c1.2,0,2.4,0.1,3.3,0.4c1,0.2,1.8,0.5,2.5,0.9c0.6,0.3,1.2,0.8,1.7,1.3c0.5,0.6,0.8,1.1,1.1,1.6
		c0.3,0.5,0.5,1.1,0.6,1.8s0.2,1.3,0.3,1.9c0,0.5,0,1.1,0,1.8v4.2c0,0.7,0,1.3,0,1.8c0,0.5-0.1,1.1-0.3,1.9s-0.3,1.3-0.6,1.8
		c-0.3,0.5-0.6,1.1-1.1,1.6c-0.5,0.6-1,1-1.7,1.4c-0.6,0.3-1.5,0.6-2.5,0.9c-1,0.2-2.1,0.4-3.3,0.4c-1.3,0-2.4-0.1-3.4-0.3
		s-1.8-0.5-2.5-0.8c-0.7-0.3-1.2-0.8-1.7-1.3c-0.5-0.6-0.8-1.1-1.1-1.6s-0.4-1.1-0.6-1.9c-0.1-0.7-0.2-1.4-0.2-1.9
		c0-0.5,0-1.2,0-1.9v-4.2c0-0.8,0-1.4,0-2c0-0.5,0.1-1.1,0.2-1.9c0.1-0.7,0.3-1.4,0.6-1.9c0.2-0.5,0.6-1,1.1-1.6
		c0.5-0.6,1-1,1.7-1.3c0.7-0.3,1.5-0.6,2.5-0.8C199.4,44.8,200.6,44.7,201.9,44.7z M203,51.3c-0.4-0.3-0.8-0.4-1.2-0.4
		c-0.4,0-0.8,0.1-1.2,0.4c-0.4,0.3-0.5,0.6-0.5,0.9v8.7c0,0.3,0.2,0.6,0.5,0.9c0.4,0.3,0.8,0.4,1.2,0.4c0.4,0,0.8-0.1,1.2-0.4
		c0.4-0.3,0.6-0.6,0.6-0.9v-8.7C203.5,51.8,203.4,51.5,203,51.3z"/>
	<path class="st0" d="M214.1,44.7h15.5v6.2h-7.8V54h6v5.1h-6v9.3h-7.7V44.7z"/>
	<path class="st0" d="M232.3,44.7h18.3v6.3h-5.3v17.3h-7.7V51.1h-5.3V44.7z"/>
</g>
<g>
	<path class="st1" d="M28.8,49.2c-0.1-0.2-0.3-0.4-0.4-0.6c-2.9-3.5-7.4-5.5-13-4.3c-1.2,0.3-2.3,0.1-3.4-0.1c0,0-0.1,0-0.1,0
		c-2.4-0.5-4.5-2-5.8-4.1c-0.4-0.8-0.8-1.8-1.1-3c-0.1-0.5-0.3-1-0.4-1.5c0,0,0-0.1,0-0.1C4,33.4,3.8,30.9,4,28.8
		c1-8.7,8-23.2,16.7-22.3c12.8,1.3,21.6-3.4,34.9,4.2c1.5,0.9,2.8,1.9,3.9,2.9c0.2,0.2,0.3,0.3,0.5,0.5c0.1,0.1,0.1,0.2,0.2,0.2
		c0.1,0.2,0.3,0.3,0.4,0.5c0.2,0.2,0.4,0.5,0.6,0.7c0.5,0.7,1,1.4,1.4,2.1c0.1,0.1,0.2,0.2,0.2,0.4c0.2,0.3,0.3,0.6,0.5,0.9
		c0.1,0.1,0.1,0.2,0.2,0.3c0.8,1.8,1,3.8,0.8,5.9c-0.3,2.8-1.6,5.6-3.5,7.6C52.5,41.3,46,46.1,28.8,49.2z"/>
	<path class="st1" d="M81.7,34.5c-0.5,4.2-5,9.1-10,12.7c-0.9,0.6-1.7,1.3-2.4,2c-4,3.7-6.6,8.5-8.7,13.8c-0.1,0.1-0.2,0.2-0.3,0.2
		c-0.4,0.4-0.9,1.2-0.9,2.3v0.3c-0.1,0-0.2,0.1-0.3,0.1c-0.1-0.1-0.2-0.2-0.2-0.3c-0.6-0.6-1.4-1-2.2-1h0c-0.8,0-1.6,0.4-2.2,1
		c-0.5,0.6-1.1,1.1-1.6,1.6c-0.6,0.6-1,1.4-1,2.3c0,0.6,0.2,1.5,1,2.3c0.1,0.1,0.2,0.2,0.2,0.2c0,0.1-0.1,0.2-0.1,0.3
		c-0.1,0-0.2,0-0.4,0c-0.9,0-1.7,0.3-2.2,0.9c-0.4,0.4-0.9,1.2-0.9,2.3c0,0.7,0,1.5,0,2.3c0,0.9,0.3,1.7,0.9,2.3
		c0.4,0.4,1.1,0.9,2.3,0.9h0.3c0,0.1,0.1,0.2,0.1,0.3c-0.1,0.1-0.2,0.2-0.2,0.2c-0.6,0.6-1,1.4-1,2.2c0,0.2,0,0.4,0.1,0.6
		c-1.2,1.6-2.6,3.1-4.2,4.5c-0.2,0.2-0.3,0.3-0.5,0.4c-1.6,1.2-5.1,2.6-8.3,0.9c-2.1-0.4-3.6-2.3-4.6-4.9c-0.6-1.2-1-2.6-1.2-4v0
		c-0.6-3.1-1-6.7-1.1-10.1c19-9,31.8-21.4,37.6-30.4c1.5-2.4,2.7-5.3,3.3-8.3c0.1-0.5,0.2-1,0.3-1.6c0.4,0.2,0.8,0.4,1.3,0.5
		c0.1,0,0.2,0,0.2,0.1C77.4,32.2,82.5,27.3,81.7,34.5z"/>
	<path class="st0" d="M71,29.8c-0.1,0.6-0.2,1.2-0.4,1.9c-0.5,2.1-1.6,4.4-3.5,6.9C56.6,52.6,40.8,59.9,32,62.9c0-0.1,0-0.3,0-0.4
		c0-0.2,0-0.5,0-0.7c0-0.4,0-0.8,0-1.2c0,0,0,0,0,0c0-0.3,0-0.6,0-0.9c0-0.6,0-0.9,0-0.9c0-0.3,0-0.7-0.1-1
		c-0.1-0.6-0.1-1.2-0.3-1.7c0-0.1,0-0.2-0.1-0.3c0-0.2-0.1-0.4-0.1-0.6c2-0.6,3.9-1.3,5.8-2.1c15.4-6,26.6-14.3,29.3-24.6
		c0.2-0.8,0.4-1.7,0.5-2.6c0,0,0,0,0,0v0c0.6-5.4-2.8-8.6-6.2-10.6c0,0,0,0,0,0c-0.1-0.1-0.2-0.2-0.3-0.3c-0.2-0.2-0.3-0.3-0.4-0.5
		c2.8,1.2,6.1,3,7.9,5.4C69.7,21.7,71.6,25.2,71,29.8z"/>
	<path class="st0" d="M75.5,75c-0.2-0.2-0.4-0.2-0.5-0.2h-2.1c-0.2-1.1-0.7-2.2-1.3-3.2c0.2-0.2,0.5-0.5,0.7-0.7
		c0.2-0.2,0.5-0.5,0.7-0.7c0.1-0.1,0.3-0.3,0.3-0.5c0-0.3-0.2-0.5-0.2-0.5c-0.6-0.5-1.1-1.1-1.7-1.7c-0.1-0.1-0.2-0.2-0.5-0.2
		c-0.3,0-0.5,0.2-0.5,0.2c-0.2,0.2-0.5,0.5-0.7,0.7c-0.3,0.3-0.5,0.5-0.8,0.8c-0.9-0.6-2-1.1-3.1-1.3c0-0.3,0-0.7,0-1
		c0-0.4,0-0.7,0-1.1c0-0.1,0-0.4-0.2-0.6c-0.2-0.2-0.5-0.2-0.6-0.2c-0.8,0-1.6,0-2.3,0c-0.1,0-0.4,0-0.6,0.2
		c-0.2,0.2-0.2,0.5-0.2,0.6v2.1c-1.1,0.2-2.1,0.7-3.1,1.3c0,0-0.1-0.1-0.1-0.1L58,68.3c-0.3-0.3-0.6-0.6-0.8-0.8
		c-0.1-0.1-0.2-0.2-0.5-0.2c-0.3,0-0.5,0.2-0.5,0.2c-0.5,0.6-1.1,1.1-1.7,1.7c-0.1,0.1-0.2,0.2-0.2,0.5c0,0.3,0.2,0.5,0.3,0.5
		c0.3,0.2,0.5,0.5,0.8,0.7c0.2,0.3,0.5,0.5,0.8,0.8c-0.6,0.9-1.1,2-1.3,3.1h-2.1c-0.1,0-0.4,0-0.6,0.2c-0.2,0.2-0.2,0.5-0.2,0.6v2.3
		c0,0.2,0,0.4,0.2,0.6c0.2,0.2,0.5,0.2,0.6,0.2c0.4,0,0.9,0,1.3,0h0.8c0.1,0.3,0.1,0.6,0.2,0.9c0.3,0.8,0.6,1.6,1.1,2.3
		c-0.2,0.2-0.5,0.5-0.7,0.7c-0.3,0.3-0.5,0.5-0.8,0.8c-0.1,0.1-0.2,0.2-0.2,0.5c0,0.3,0.2,0.4,0.2,0.5c0.6,0.5,1.1,1.1,1.7,1.7
		c0.1,0.1,0.3,0.3,0.5,0.3c0.3,0,0.5-0.2,0.5-0.2c0.3-0.3,0.6-0.6,0.9-0.9c0.2-0.2,0.4-0.4,0.6-0.6c1,0.6,2,1.1,3.2,1.3
		c0,0.3,0,0.7,0,1v1c0,0.1,0,0.4,0.2,0.6c0.1,0.1,0.3,0.2,0.5,0.2h2.3c0,0,0,0,0.1,0c0.1,0,0.4,0,0.5-0.2c0.2-0.2,0.2-0.5,0.2-0.6
		c0-0.4,0-0.7,0-1.1c0-0.3,0-0.6,0-0.9c1.1-0.2,2.2-0.7,3.2-1.3c0.2,0.2,0.4,0.4,0.6,0.7c0.3,0.3,0.5,0.5,0.8,0.8
		c0.1,0.1,0.3,0.3,0.5,0.3c0.3,0,0.5-0.2,0.5-0.2c0.5-0.6,1.1-1.1,1.7-1.7c0.1-0.1,0.2-0.2,0.2-0.5c0-0.3-0.2-0.4-0.2-0.5
		c-0.3-0.3-0.6-0.6-0.9-0.9l-0.5-0.5c0.6-1,1.1-2.1,1.3-3.2h1c0.3,0,0.7,0,1,0c0.1,0,0.3,0,0.5-0.2c0.2-0.2,0.2-0.4,0.2-0.5
		c0-0.8,0-1.6,0-2.4C75.7,75.4,75.7,75.2,75.5,75z M63.8,82.8c-3.4-0.1-6.1-2.8-6-6.1c0.1-3.3,2.7-5.9,6-5.9h0.1
		c1.7,0,3.2,0.7,4.3,1.8c1.1,1.2,1.7,2.7,1.7,4.3C69.7,80.2,67.1,82.8,63.8,82.8z"/>
</g>
</svg>
